<?xml version="1.0" encoding="UTF-8" standalone="no"?>
<!-- Created with Inkscape (http://www.inkscape.org/) -->

<svg
   version="1.1"
   id="svg1"
   width="37"
   height="59"
   viewBox="0 0 37 59"
   sodipodi:docname="53678130-golf-ball-on-tee.jpg"
   inkscape:export-filename="../dev/workspaces/pga-pick-em/53678130-golf-ball-on-tee.svg"
   inkscape:export-xdpi="96"
   inkscape:export-ydpi="96"
   inkscape:version="0.0.2 (091e20e, 2023-11-25)"
   inkscape:dataloss="true"
   xmlns:inkscape="http://www.inkscape.org/namespaces/inkscape"
   xmlns:sodipodi="http://sodipodi.sourceforge.net/DTD/sodipodi-0.dtd"
   xmlns="http://www.w3.org/2000/svg"
   xmlns:svg="http://www.w3.org/2000/svg">
  <defs
     id="defs1" />
  <sodipodi:namedview
     id="namedview1"
     pagecolor="#ffffff"
     bordercolor="#000000"
     borderopacity="0.25"
     inkscape:showpageshadow="2"
     inkscape:pageopacity="0.0"
     inkscape:pagecheckerboard="0"
     inkscape:deskcolor="#d1d1d1"
     showgrid="false"
     inkscape:zoom="2.999314"
     inkscape:cx="84.68603"
     inkscape:cy="122.52802"
     inkscape:window-width="1712"
     inkscape:window-height="1040"
     inkscape:window-x="0"
     inkscape:window-y="39"
     inkscape:window-maximized="0"
     inkscape:current-layer="g1" />
  <g
     inkscape:groupmode="layer"
     inkscape:label="Image"
     id="g1"
     transform="translate(-189.98355,-179.47514)">
    <path
       d="m 207.71956,238.35024 c -0.59478,-0.21164 -0.62615,-0.27175 -0.66562,-1.27514 -0.0187,-0.4757 -0.0519,-1.31177 -0.0737,-1.85794 -0.056,-1.40295 -0.24492,-2.86566 -0.44697,-4.28862 -0.0586,-0.41292 -0.0911,-0.60334 -0.22185,-1.23131 -0.10217,-0.50534 -0.27042,-1.24054 -0.37389,-1.63378 -1.06941,-4.06412 -3.02446,-7.19913 -5.18905,-8.32088 -1.07403,-0.55659 -1.35962,-0.95968 -1.36007,-1.9196 -1.8e-4,-0.36996 0.0401,-0.7081 0.11227,-0.94352 l 0.11255,-0.36691 0.30193,0.12137 c 0.16607,0.0668 0.4887,0.20661 0.71697,0.31079 0.61176,0.27919 2.29608,0.83271 3.06484,1.0072 0.7222,0.16392 2.39987,0.44446 3.05006,0.51004 0.52683,0.0531 2.82512,0.0527 3.48555,-6e-4 0.59669,-0.0482 2.4417,-0.3596 3.21469,-0.54256 0.656,-0.15526 2.56763,-0.80024 2.9707,-1.0023 0.16611,-0.0833 0.44565,-0.20821 0.62119,-0.27764 l 0.31918,-0.12623 0.11255,0.36691 c 0.0722,0.23542 0.11245,0.57356 0.11227,0.94352 -4e-4,0.9591 -0.28628,1.36313 -1.35682,1.91791 -0.83563,0.43305 -1.41407,0.96268 -2.51172,2.29981 -0.26795,0.32641 -0.84339,1.29805 -1.23886,2.09187 -0.99344,1.99409 -1.67402,4.34037 -2.10955,7.27261 -0.27513,1.85236 -0.36125,2.91384 -0.44184,5.44569 l -0.0347,1.08914 -0.18852,0.17291 c -0.39611,0.36333 -1.31743,0.47368 -1.98162,0.23733 z m -0.95776,-21.88663 c -0.4778,-0.0392 -1.53657,-0.20427 -2.0113,-0.3135 -0.94078,-0.21647 -1.86618,-0.46706 -2.22475,-0.60245 0,0 -0.24847,-0.0945 -0.37307,-0.14086 -0.12885,-0.0479 -0.38727,-0.1417 -0.38727,-0.1417 -0.41717,-0.14508 -2.09826,-0.96911 -2.69764,-1.32232 -1.04307,-0.61467 -1.84304,-1.21189 -2.97134,-2.21828 -2.63863,-2.35355 -4.58646,-5.55263 -5.49283,-9.02134 -0.49172,-1.88181 -0.71351,-4.10411 -0.58346,-5.84604 0.10154,-1.84474 0.55356,-3.6242 1.13301,-5.36568 0.0358,-0.14778 0.29212,-0.75002 0.59564,-1.39956 1.65021,-3.53148 4.34467,-6.41632 7.82979,-8.38302 0.72327,-0.40815 1.80251,-0.87731 2.7374,-1.23456 0.38849,-0.14846 0.78175,-0.29461 1.18943,-0.37619 2.18972,-0.43821 4.44301,-0.71777 6.67241,-0.5932 1.36592,0.0763 3.53354,0.64658 4.02261,0.81664 l 0.54273,0.18872 c 3.5297,1.22736 6.57717,4.10711 9.02745,7.0346 0.8957,1.07014 1.3963,2.42516 1.95398,3.7057 0.14925,0.34272 0.27375,0.69749 0.37006,1.0588 0.40001,1.5006 0.73734,2.91842 0.85618,4.58017 0.1375,1.92278 -0.16895,4.30803 -0.7187,6.3738 -0.36961,1.38888 -1.71012,3.95655 -1.71012,3.95655 -1.30095,2.27669 -3.32359,4.48557 -5.46892,5.97249 -1.10018,0.76254 -2.39865,1.47989 -3.51179,1.94013 0,0 -0.33755,0.14857 -0.51081,0.2112 -0.0861,0.0311 -0.17386,0.0573 -0.26207,0.0816 -1.36928,0.37606 -2.8238,0.83813 -4.14325,0.98929 -0.75949,0.087 -3.04753,0.11607 -3.86337,0.0491 z m 3.8949,-2.04465 c 0.43898,-0.0546 1.19429,-0.20839 1.78397,-0.34746 0.45723,-0.10784 0.95912,-0.23401 1.35804,-0.37712 0.95664,-0.28701 2.77641,-1.19319 3.82519,-1.9048 1.86334,-1.26428 3.56105,-2.966 4.61706,-4.62796 0.10278,-0.16176 0.27901,-0.43825 0.39162,-0.61444 1.01964,-1.59525 1.89952,-4.05389 2.24364,-6.26942 0.13968,-0.89926 0.15634,-3.48125 0.0284,-4.39773 -0.0978,-0.70041 -0.45965,-2.33599 -0.65201,-2.94708 -0.12703,-0.40355 -0.17164,-0.52052 -0.53761,-1.40947 -0.55932,-1.35864 -1.5237,-2.95015 -2.52411,-4.16551 -0.35889,-0.43602 -1.64107,-1.72181 -2.13347,-2.1395 -1.08789,-0.92283 -2.74599,-1.93631 -4.15462,-2.53943 -0.41145,-0.17617 -1.64294,-0.60772 -2.0015,-0.70138 l -1.39836,-0.30425 c -1.91467,-0.37796 -3.9744,-0.38331 -5.94868,-0.0154 l -1.10445,0.20579 -0.25078,0.0829 c -0.67054,0.1456 -2.24865,0.75394 -3.13615,1.20893 -3.59566,1.8434 -6.31469,4.77742 -7.84375,8.46395 -0.41744,1.00646 -0.59264,1.56274 -0.85266,2.70744 -0.33181,1.46071 -0.38563,1.9877 -0.38105,3.73129 0.005,1.78212 0.0655,2.28677 0.47905,3.97215 1.07768,4.39225 4.06884,8.27802 8.07189,10.48605 3.0742,1.69568 6.54128,2.34743 10.12036,1.90245 z m -7.63457,-4.49252 c -0.56288,-0.38112 -0.73077,-0.67588 -0.72849,-1.27901 0.003,-0.85752 0.58912,-1.4261 1.4706,-1.42719 0.32416,-4e-4 0.85201,0.23056 1.06148,0.46444 0.30143,0.33656 0.42238,1.00163 0.26619,1.46367 -0.11814,0.34951 -0.29839,0.56114 -0.65048,0.76376 -0.27205,0.15656 -0.40175,0.18965 -0.74447,0.18992 -0.34728,2e-4 -0.45744,-0.0284 -0.67483,-0.17559 z m -3.65402,-0.47406 c -0.19977,-0.0458 -0.3652,-0.15411 -0.60871,-0.39845 -0.51612,-0.51787 -0.61921,-1.0357 -0.32438,-1.62936 0.2991,-0.60225 0.84618,-0.90234 1.50278,-0.82431 0.52233,0.0621 0.86362,0.30466 1.08289,0.76972 0.21154,0.44868 0.23085,0.72032 0.0823,1.15776 -0.23509,0.69228 -0.9912,1.09526 -1.73489,0.92464 z m 6.01017,-2.93462 c -0.32355,-0.0773 -0.76543,-0.36824 -0.90601,-0.59648 -0.18776,-0.30483 -0.2911,-0.74937 -0.23899,-1.02809 0.064,-0.34213 0.0449,-0.36983 0.14162,-0.52175 0.1765,-0.27731 0.3641,-0.45102 0.75242,-0.63592 0.71529,-0.34058 1.70369,0.12732 1.93175,0.91447 0.21372,0.73768 -0.0691,1.33921 -0.73235,1.73106 -0.22414,0.13243 -0.36139,0.23972 -0.94844,0.13675 z m -4.61846,-0.75357 c -0.44123,-0.15384 -0.61261,-0.3062 -0.8257,-0.73406 -0.24432,-0.49059 -0.2508,-0.79217 -0.0269,-1.25141 0.44494,-0.9125 1.56289,-1.12708 2.3115,-0.44367 0.2582,0.23571 0.45666,0.70565 0.456,1.07978 -4e-4,0.25713 -0.046,0.41792 -0.18955,0.66903 -0.20552,0.35956 -0.39637,0.51935 -0.8168,0.6839 -0.32976,0.12907 -0.5304,0.12828 -0.90858,-0.004 z m -4.45262,-0.34553 c -0.26324,-0.0763 -0.69765,-0.50161 -0.82519,-0.80789 -0.14068,-0.33784 -0.12674,-0.90339 0.0298,-1.20888 0.26932,-0.52558 0.72016,-0.79483 1.33089,-0.79483 0.87997,0 1.49822,0.69784 1.40668,1.58778 -0.097,0.94264 -0.98397,1.50156 -1.94219,1.22382 z m 6.84703,-2.94823 c -0.34044,-0.20137 -0.6349,-0.48907 -0.74144,-0.72444 -0.15557,-0.34365 -0.15542,-0.94567 3.9e-4,-1.2897 0.47167,-1.04199 2.05254,-1.05864 2.58196,-0.0272 0.15917,0.31012 0.1773,0.40356 0.15219,0.78444 -0.0338,0.51321 -0.20384,0.81569 -0.62179,1.10631 -0.23709,0.16486 -0.34138,0.19352 -0.75918,0.20862 -0.28881,0.0104 -0.5359,-0.013 -0.61205,-0.058 z m -8.27914,-1.03806 c -0.58067,-0.2178 -0.94731,-0.7611 -0.94731,-1.40375 0,-0.41976 0.10471,-0.67721 0.40621,-0.99876 0.29144,-0.3108 0.50188,-0.39857 0.98412,-0.41044 0.48794,-0.012 0.6695,0.0625 1.07673,0.44199 0.63609,0.59276 0.5161,1.71839 -0.23471,2.20181 -0.3726,0.23991 -0.90836,0.31043 -1.28504,0.16915 z m 3.86192,-0.104 c -0.3041,-0.15442 -0.43297,-0.26604 -0.56179,-0.4866 -0.3411,-0.58402 -0.27106,-1.32761 0.1664,-1.76655 0.36664,-0.36788 0.60053,-0.46903 1.07733,-0.46589 0.49448,0.003 0.70692,0.10144 1.06659,0.49296 0.81451,0.88663 0.23609,2.2906 -0.98675,2.39509 -0.31984,0.0273 -0.41804,0.006 -0.76178,-0.16901 z m -1.93312,-3.81959 c -0.35263,-0.15348 -0.63174,-0.39838 -0.78352,-0.68747 -0.19249,-0.36661 -0.19124,-0.99335 0.003,-1.37002 0.226,-0.4389 0.79856,-0.78853 1.2913,-0.78853 0.28816,0 0.8149,0.2127 0.86753,0.3503 0.0205,0.0536 0.0588,0.0841 0.0851,0.0677 0.1483,-0.092 0.51339,0.66504 0.51339,1.06451 0,0.31735 -0.24037,0.84544 -0.46706,1.02611 -0.54516,0.4345 -1.03487,0.54395 -1.50949,0.33736 z"
       id="path1"
       sodipodi:nodetypes="cssassssscsssscssscscssssscsccsssacsssssssaaassaaasacssaassssasssssssssssccsccssssssssssssscsssssssscssasssccsssscsssssssssscscssssccsssssssssscsssssssssssss"
       style="fill:#33bbff;fill-opacity:1;stroke-width:0.199871" />
  </g>
</svg>
