<?xml version="1.0" encoding="UTF-8" standalone="no"?>
<!-- Created with Inkscape (http://www.inkscape.org/) -->

<svg
   width="19.011742mm"
   height="17.899401mm"
   viewBox="0 0 19.011742 17.899401"
   version="1.1"
   id="svg1"
   xmlns="http://www.w3.org/2000/svg"
   xmlns:svg="http://www.w3.org/2000/svg">
  <defs
     id="defs1" />
  <g
     id="layer1"
     transform="translate(-76.200002,-153.45833)">
    <path
       d="m 84.82118,171.33975 c -0.24551,-0.019 -0.78955,-0.0987 -1.03347,-0.15146 -0.48341,-0.1047 -0.95891,-0.22581 -1.14314,-0.29125 0,0 -0.12759,-0.0457 -0.19168,-0.0681 -0.0662,-0.0232 -0.19901,-0.0685 -0.19901,-0.0685 -0.21434,-0.0702 -1.07814,-0.4685 -1.38612,-0.63927 -0.53597,-0.29715 -0.947,-0.58586 -1.52676,-1.0724 -1.35581,-1.13778 -2.35666,-2.68434 -2.82238,-4.36123 -0.25268,-0.90975 -0.36664,-1.98407 -0.29982,-2.82619 0.0522,-0.89183 0.28444,-1.75208 0.58219,-2.59397 0.0175,-0.0714 0.15012,-0.36258 0.30604,-0.6766 0.84793,-1.70724 2.23244,-3.10188 4.02321,-4.05264 0.37163,-0.19732 0.92618,-0.42414 1.40656,-0.59685 0.1996,-0.0718 0.40168,-0.14233 0.61117,-0.1818 1.12513,-0.21185 2.28295,-0.347 3.42848,-0.28677 0.70186,0.0369 1.81564,0.31257 2.06694,0.3948 l 0.27887,0.0911 c 1.81368,0.59337 3.37957,1.98553 4.63859,3.40079 0.46024,0.51735 0.71746,1.17241 1.00401,1.79146 0.0767,0.16573 0.1406,0.33721 0.19012,0.51186 0.20553,0.72546 0.37886,1.41089 0.43993,2.21423 0.0707,0.92955 -0.0868,2.08265 -0.36929,3.08132 -0.18993,0.67145 -0.87872,1.91275 -0.87872,1.91275 -0.66846,1.10063 -1.70776,2.16849 -2.81008,2.88732 -0.56532,0.36864 -1.23253,0.71543 -1.8045,0.93793 0,0 -0.17342,0.0718 -0.26246,0.10215 -0.0443,0.0146 -0.0893,0.0278 -0.13458,0.0395 -0.70357,0.18181 -1.45096,0.40518 -2.12893,0.47826 -0.39025,0.042 -1.56592,0.0561 -1.98511,0.0238 z m 2.00131,-0.98845 c 0.22558,-0.0263 0.61367,-0.10068 0.91666,-0.16792 0.23495,-0.0521 0.49283,-0.1131 0.6978,-0.18235 0.49157,-0.13868 1.42663,-0.57683 1.96552,-0.92085 0.95742,-0.6112 1.82977,-1.43387 2.37237,-2.23732 0.0528,-0.0782 0.14333,-0.21186 0.20123,-0.29705 0.52393,-0.77121 0.97604,-1.95979 1.15286,-3.03086 0.0718,-0.43473 0.0804,-1.68296 0.0155,-2.12602 -0.0503,-0.33862 -0.23618,-1.1293 -0.33502,-1.42473 -0.0652,-0.19509 -0.0881,-0.25164 -0.27624,-0.68139 -0.2874,-0.65681 -0.78293,-1.42621 -1.29697,-2.01375 -0.18449,-0.2108 -0.84323,-0.8324 -1.09624,-1.03432 -0.559,-0.44614 -1.41097,-0.93609 -2.13477,-1.22765 -0.21141,-0.0851 -0.84421,-0.29379 -1.02845,-0.33906 l -0.71851,-0.14709 c -0.98382,-0.18273 -2.04217,-0.18532 -3.05662,-0.008 l -0.5675,0.0994 -0.12876,0.04 c -0.34453,0.0704 -1.15543,0.36448 -1.61144,0.58445 -1.84758,0.89116 -3.2447,2.30957 -4.03037,4.09178 -0.2145,0.48655 -0.30451,0.75548 -0.43813,1.30887 -0.17051,0.70616 -0.19814,0.96092 -0.1958,1.80385 0.002,0.86154 0.0336,1.1055 0.24616,1.92027 0.55375,2.12338 2.0907,4.0019 4.1476,5.06935 1.57961,0.81974 3.3611,1.13483 5.20015,0.91971 z m -3.92287,-2.17184 c -0.28924,-0.18425 -0.3755,-0.32675 -0.37434,-0.61833 0.002,-0.41455 0.30273,-0.68943 0.75565,-0.68995 0.16663,-1.9e-4 0.43779,0.11145 0.54543,0.22452 0.15478,0.16261 0.21704,0.48423 0.13671,0.7076 -0.0608,0.16902 -0.15322,0.27129 -0.33424,0.36924 -0.13982,0.0756 -0.20642,0.0917 -0.38253,0.0917 -0.17846,1.1e-4 -0.23504,-0.0147 -0.34674,-0.0848 z m -1.87755,-0.22918 c -0.10274,-0.0221 -0.1876,-0.0745 -0.31279,-0.19264 -0.26518,-0.25034 -0.31816,-0.50068 -0.16662,-0.78769 0.15361,-0.29114 0.43478,-0.43621 0.77217,-0.3985 0.26839,0.03 0.44376,0.14727 0.55641,0.37211 0.10876,0.21691 0.11867,0.34823 0.0423,0.55971 -0.12079,0.33468 -0.50932,0.52948 -0.89143,0.44701 z m 3.08821,-1.4187 c -0.16624,-0.0375 -0.3933,-0.17797 -0.46554,-0.28836 -0.0965,-0.14727 -0.14954,-0.36227 -0.12274,-0.49702 0.0328,-0.16536 0.0231,-0.17871 0.0728,-0.25223 0.0906,-0.13411 0.18701,-0.21805 0.38662,-0.30744 0.36753,-0.16463 0.87541,0.0615 0.9926,0.4421 0.10972,0.35661 -0.0355,0.64742 -0.37632,0.83686 -0.11515,0.064 -0.18566,0.11585 -0.48733,0.0662 z m -2.37311,-0.36432 c -0.22672,-0.0743 -0.31477,-0.14799 -0.42426,-0.35487 -0.12565,-0.23716 -0.12895,-0.38295 -0.0136,-0.60497 0.22862,-0.44114 0.80306,-0.54486 1.18771,-0.2145 0.13265,0.11403 0.23466,0.34116 0.23431,0.52203 -1.9e-4,0.12424 -0.0237,0.20203 -0.0975,0.32342 -0.10565,0.17376 -0.20367,0.25107 -0.4197,0.33063 -0.16935,0.0625 -0.27255,0.0619 -0.46687,-0.002 z m -2.2879,-0.167 c -0.13516,-0.0369 -0.35846,-0.24249 -0.424,-0.39056 -0.0722,-0.16334 -0.065,-0.43673 0.0155,-0.58442 0.13827,-0.25407 0.37004,-0.38425 0.68385,-0.38425 0.45214,0 0.76982,0.33737 0.72279,0.7676 -0.0499,0.4557 -0.50559,0.72591 -0.99796,0.59163 z m 3.51822,-1.42528 c -0.17498,-0.0974 -0.32622,-0.23643 -0.38097,-0.35021 -0.08,-0.16608 -0.0798,-0.45717 1.9e-4,-0.6235 0.24236,-0.50373 1.05467,-0.51179 1.32671,-0.0128 0.0817,0.14983 0.091,0.19509 0.0782,0.37923 -0.0175,0.24809 -0.10468,0.39432 -0.31949,0.53483 -0.12175,0.0797 -0.17536,0.0936 -0.39009,0.10085 -0.14837,0.006 -0.27536,-0.006 -0.31449,-0.028 z m -4.25408,-0.50183 c -0.29837,-0.10524 -0.48675,-0.36795 -0.48675,-0.67863 0,-0.20292 0.0538,-0.32738 0.20871,-0.48284 0.14973,-0.1502 0.25788,-0.19268 0.50569,-0.19841 0.25072,-0.006 0.34399,0.0302 0.55325,0.21367 0.32684,0.28657 0.26519,0.83073 -0.12061,1.06443 -0.19148,0.11602 -0.46675,0.15001 -0.66029,0.0818 z m 1.98438,-0.0503 c -0.15634,-0.0747 -0.22249,-0.12863 -0.28867,-0.23524 -0.17517,-0.28234 -0.13924,-0.64181 0.0854,-0.85401 0.18838,-0.17778 0.30858,-0.22674 0.55356,-0.22523 0.25408,9.7e-4 0.36325,0.049 0.54804,0.23833 0.41853,0.42861 0.12138,1.10735 -0.50702,1.15787 -0.16429,0.0128 -0.21479,0.004 -0.39142,-0.0816 z m -0.9933,-1.84653 c -0.18119,-0.0742 -0.32461,-0.19258 -0.4026,-0.33233 -0.0988,-0.17724 -0.0983,-0.48024 0.002,-0.66233 0.11614,-0.21217 0.41031,-0.3812 0.66349,-0.3812 0.14799,0 0.41873,0.10287 0.44578,0.16937 0.01,0.0259 0.0303,0.0408 0.0437,0.0327 0.0761,-0.0445 0.26381,0.32151 0.26381,0.51462 0,0.15349 -0.12352,0.40872 -0.24,0.49606 -0.28012,0.21005 -0.53175,0.26297 -0.77563,0.16316 z"
       id="path1"
       style="fill-opacity:1;stroke-width:0.0996159" />
  </g>
</svg>
