<?xml version="1.0" encoding="UTF-8" standalone="no"?>
<!-- Created with Inkscape (http://www.inkscape.org/) -->

<svg
   width="151.70744mm"
   height="179.86424mm"
   viewBox="0 0 151.70744 179.86424"
   version="1.1"
   id="svg1"
   xmlns="http://www.w3.org/2000/svg"
   xmlns:svg="http://www.w3.org/2000/svg">
  <defs
     id="defs1" />
  <g
     id="layer1"
     transform="translate(-27.275637,-58.625351)">
    <path
       style="stroke-width:0.264583"
       d="m 147.65458,238.3948 c -1.7733,-0.0869 -4.36218,-0.42179 -5.25112,-0.67919 -1.38542,-0.40118 -2.94155,-1.33414 -3.95447,-2.37088 -1.34327,-1.37486 -12.65626,-18.31297 -15.08396,-22.58412 -2.19652,-3.86442 -3.76813,-6.50056 -4.73217,-7.9375 -0.60589,-0.9031 -4.27557,-6.59091 -9.78708,-15.16944 -1.27774,-1.98878 -3.19474,-4.96535 -4.25999,-6.61458 -1.70134,-2.63405 -23.455174,-36.39727 -30.059994,-46.65486 -1.34303,-2.0858 -3.39085,-5.2608 -4.55071,-7.05556 -1.15985,-1.79476 -5.063726,-7.8471 -8.67527,-13.44965 -3.611545,-5.60255 -6.672454,-10.18646 -6.80202,-10.18646 -0.129567,0 -0.469602,-0.21828 -0.755633,-0.48507 -0.286032,-0.26679 -4.427551,-6.557264 -9.203374,-13.978824 -4.775824,-7.42156 -10.541272,-16.38015 -12.812106,-19.90798 -2.270835,-3.52782 -4.202757,-6.608773 -4.29316,-6.846552 -0.253995,-0.668057 -0.195026,-1.790742 0.13004,-2.475767 0.460592,-0.970626 3.764139,-3.188065 4.995679,-3.353247 0.885784,-0.118808 2.070767,0.309652 2.679854,0.96897 0.244872,0.265065 4.122386,6.196939 8.616699,13.181936 4.494313,6.985 9.452124,14.68438 11.017358,17.10972 1.565235,2.42535 3.694033,5.72517 4.730664,7.33293 1.56003,2.41953 1.884782,3.039824 1.884782,3.599974 0,0.5761 0.442513,1.36132 2.974917,5.27888 3.605927,5.57827 43.058674,66.80712 46.325124,71.89447 2.31101,3.5993 13.71635,21.29171 15.35063,23.8125 0.47172,0.72761 2.21158,3.07175 3.86635,5.20921 1.65477,2.13746 5.11212,6.95594 7.68298,10.70775 2.57087,3.75181 4.74499,6.82501 4.83138,6.82934 0.0864,0.004 1.43577,-0.77758 2.99862,-1.73756 7.10365,-4.36347 17.40377,-10.10337 19.68727,-10.97103 2.02389,-0.76901 4.83869,-0.57625 6.90966,0.47318 1.11256,0.56378 2.59167,1.9356 3.33357,3.09175 0.32427,0.50531 1.13313,2.59139 1.95824,5.05032 1.55891,4.64574 1.8326,6.27098 1.37634,8.17292 -0.5856,2.44101 -2.2785,4.70234 -4.31105,5.75857 -1.62397,0.8439 -8.92609,2.82787 -12.17362,3.30754 -4.69291,0.69316 -9.6542,0.92296 -14.64443,0.67831 z m 11.72986,-2.78122 c 3.32911,-0.42025 9.44636,-1.72526 9.81494,-2.09384 0.0432,-0.0432 -0.49813,-4.41411 -1.20286,-9.71324 -1.14426,-8.60407 -1.31462,-9.63478 -1.59254,-9.63478 -0.7321,0 -14.33291,7.5175 -18.71982,10.3469 -1.19398,0.77007 -1.20419,0.78334 -1.1022,1.4329 0.0566,0.36059 0.26322,2.36218 0.45911,4.44798 0.19589,2.0858 0.40394,4.16558 0.46234,4.62174 l 0.10617,0.82938 0.90444,0.0763 c 1.8389,0.15504 8.73488,-0.0437 10.87042,-0.31329 z m -10.34608,-2.31127 c -0.0575,-0.1497 -0.0694,-0.30723 -0.0266,-0.35005 0.13387,-0.13387 18.13115,-1.55585 18.24542,-1.44158 0.0596,0.0596 0.0666,0.21708 0.0156,0.35 -0.0696,0.18142 -1.0755,0.31748 -4.03464,0.54575 -2.16804,0.16724 -6.17802,0.49848 -8.91106,0.73608 -2.73304,0.23759 -5.01756,0.43199 -5.07671,0.43199 -0.0592,0 -0.15456,-0.12249 -0.21201,-0.27219 z m -0.23725,-3.38491 c 0,-0.42898 -0.64126,-0.35149 10.02297,-1.2112 5.9295,-0.47802 8.04585,-0.59315 8.19327,-0.44573 0.12457,0.12458 0.13622,0.25607 0.0312,0.35234 -0.0922,0.0845 -3.81881,0.44639 -8.28145,0.80425 -4.46264,0.35787 -8.53061,0.69656 -9.03993,0.75265 -0.84361,0.0929 -0.92604,0.0704 -0.92604,-0.25231 z m -0.43344,-3.38627 c -0.0558,-0.0903 -0.001,-0.22921 0.12188,-0.30868 0.35142,-0.22731 17.83745,-1.63444 18.02982,-1.4509 0.27511,0.26251 -0.13181,0.51707 -0.97594,0.61054 -1.54436,0.171 -15.86184,1.31324 -16.4609,1.31324 -0.33736,0 -0.65905,-0.0739 -0.71486,-0.1642 z m 7.01701,-3.99814 c -0.0554,-0.14442 -0.0561,-0.30726 -0.002,-0.36185 0.0546,-0.0546 2.41632,-0.29481 5.24829,-0.53381 3.65565,-0.30852 5.20374,-0.37984 5.33767,-0.24591 0.11872,0.11871 0.12653,0.24729 0.0211,0.34688 -0.0922,0.087 -2.23132,0.32602 -4.75368,0.53108 -2.52236,0.20506 -4.84823,0.40735 -5.16859,0.44953 -0.40614,0.0535 -0.61299,-0.003 -0.68325,-0.18592 z m 7.95901,-4.1433 c -0.19286,-0.31206 0.13439,-0.48461 0.97964,-0.51653 1.1408,-0.0431 1.23472,-0.0243 1.23472,0.24674 0,0.43215 -1.96598,0.67168 -2.21436,0.26979 z m -18.48024,16.28724 c -0.0564,-0.46081 -0.23817,-2.3223 -0.40393,-4.13664 -0.16577,-1.81433 -0.35472,-3.38507 -0.41989,-3.49051 -0.0851,-0.13773 -0.26341,-0.13648 -0.63302,0.004 -0.76814,0.29285 -1.93475,0.0535 -2.59454,-0.53233 -0.31121,-0.2763 -2.47083,-3.28573 -4.79916,-6.68761 -2.32833,-3.40189 -4.29131,-6.1867 -4.36217,-6.18848 -0.2637,-0.007 -3.30946,2.03253 -3.31009,2.21612 -7.9e-4,0.24971 11.189,16.94899 11.77797,17.57697 1.05397,1.12375 2.97216,2.05778 4.25139,2.07014 l 0.59599,0.006 z m 28.15289,-2.44483 c 2.06725,-1.03444 3.35303,-3.11947 3.35999,-5.44857 0.003,-1.07397 -0.17296,-1.76526 -1.35308,-5.30964 -1.47467,-4.42903 -1.97048,-5.38915 -3.27731,-6.34639 -0.83314,-0.61026 -2.24932,-1.20106 -2.36853,-0.9881 -0.0371,0.0663 0.42673,3.81146 1.03075,8.3226 0.60402,4.51115 1.15462,8.65849 1.22355,9.21632 0.0689,0.55783 0.20164,1.01424 0.2949,1.01424 0.0932,0 0.58364,-0.20721 1.08973,-0.46046 z m -43.87579,-20.10081 c 0.68171,-0.43609 0.93102,-0.69241 0.83526,-0.85875 -0.29973,-0.52062 -4.20141,-5.54782 -4.31311,-5.55731 -0.22368,-0.019 -2.29605,1.28549 -2.37691,1.49619 -0.0442,0.11531 0.73144,1.60178 1.72375,3.30327 l 1.8042,3.09363 0.67751,-0.4277 c 0.37264,-0.23523 1.11482,-0.70743 1.6493,-1.04933 z m -6.11979,-7.86095 c 0.59724,-0.40104 1.08203,-0.77807 1.0773,-0.83785 -0.005,-0.0598 -0.55685,-0.94212 -1.22691,-1.96077 -0.67007,-1.01864 -1.67423,-2.56645 -2.23148,-3.43958 -1.3254,-2.07671 -10.22895,-15.8925 -16.14162,-25.04722 -6.111424,-9.46245 -18.802524,-29.16045 -33.127364,-51.41736 -6.337602,-9.84691 -11.610133,-17.99917 -11.716736,-18.11613 -0.148586,-0.16302 -0.451121,-0.0488 -1.296253,0.48935 -0.606337,0.3861 -1.102431,0.74928 -1.102431,0.80706 0,0.0578 1.259336,2.06008 2.798524,4.44954 4.350547,6.75387 24.303206,37.71765 34.568256,53.64518 5.09571,7.90663 9.872284,15.32819 10.614614,16.49236 1.69244,2.65421 3.94977,6.1577 6.54175,10.15313 1.10522,1.70367 3.79544,5.88852 5.97825,9.29968 2.18281,3.41116 4.01587,6.20428 4.07347,6.20694 0.0576,0.003 0.59339,-0.32329 1.19063,-0.72433 z M 56.986804,101.78737 c 0.930901,-0.59563 1.669785,-1.1488 1.641963,-1.22925 -0.15957,-0.46146 -25.313739,-39.320901 -25.50117,-39.395511 -0.243216,-0.09682 -3.243252,1.806882 -3.338666,2.118577 -0.03141,0.102603 0.988071,1.809165 2.265507,3.79236 1.277437,1.9832 4.162553,6.46332 6.411368,9.95581 5.270927,8.18597 13.990188,21.70889 15.495901,24.032994 0.644236,0.99439 1.20761,1.80799 1.251943,1.80799 0.04433,0 0.842252,-0.48734 1.773154,-1.08297 z"
       id="path2" />
  </g>
</svg>
