<?xml version="1.0" encoding="UTF-8" standalone="no"?>
<!-- Created with Inkscape (http://www.inkscape.org/) -->

<svg
   version="1.1"
   id="svg1"
   width="185"
   height="295"
   viewBox="0 0 185 295"
   sodipodi:docname="53678130-golf-ball-on-tee.jpg"
   inkscape:export-filename="../dev/workspaces/pga-pick-em/53678130-golf-ball-on-tee.svg"
   inkscape:export-xdpi="96"
   inkscape:export-ydpi="96"
   inkscape:version="0.0.2 (091e20e, 2023-11-25)"
   inkscape:dataloss="true"
   xmlns:inkscape="http://www.inkscape.org/namespaces/inkscape"
   xmlns:sodipodi="http://sodipodi.sourceforge.net/DTD/sodipodi-0.dtd"
   xmlns="http://www.w3.org/2000/svg"
   xmlns:svg="http://www.w3.org/2000/svg">
  <defs
     id="defs1" />
  <sodipodi:namedview
     id="namedview1"
     pagecolor="#ffffff"
     bordercolor="#000000"
     borderopacity="0.25"
     inkscape:showpageshadow="2"
     inkscape:pageopacity="0.0"
     inkscape:pagecheckerboard="0"
     inkscape:deskcolor="#d1d1d1"
     showgrid="false"
     inkscape:zoom="1.3677652"
     inkscape:cx="108.57126"
     inkscape:cy="96.873349"
     inkscape:window-width="1712"
     inkscape:window-height="1040"
     inkscape:window-x="0"
     inkscape:window-y="39"
     inkscape:window-maximized="1"
     inkscape:current-layer="g1" />
  <g
     inkscape:groupmode="layer"
     inkscape:label="Image"
     id="g1"
     transform="translate(-115.76749,-61.629348)">
    <path
       style="-inkscape-font-specification:'Hiragino Sans, Bold';fill:#fafafa;stroke-width:1.26777"
       d="m 217.34679,169.96485 c -0.0913,-0.60853 -0.12171,-1.2627 -0.12171,-2.12985 v -2.25155 h 2.66231 c 1.47568,0 2.60146,-0.38033 3.37733,-1.17142 0.71502,-0.71502 1.08014,-1.71909 1.08014,-2.93615 0,-1.14099 -0.3499,-2.09942 -0.98886,-2.73837 -0.76066,-0.76066 -1.88644,-1.14099 -3.42297,-1.14099 h -3.24041 c -0.89758,0 -1.39962,-0.0152 -2.08421,-0.0456 0.0913,0.73023 0.12171,1.30833 0.12171,2.08421 v 8.23034 c 0,0.86715 -0.0304,1.47568 -0.12171,2.09942 z m -0.12171,-6.52646 v -3.69681 h 2.60146 c 0.68459,0 1.1562,0.15213 1.47568,0.50203 0.30426,0.30427 0.45639,0.76066 0.45639,1.30834 0,1.20184 -0.6998,1.88644 -1.93207,1.88644 z m 8.47375,-5.84187 v 2.09942 h 2.6471 v -2.09942 z m -0.0304,3.36211 c 0.0913,0.62374 0.1217,1.20185 0.1217,2.12985 v 4.74652 c 0,0.89758 -0.0304,1.36919 -0.1217,2.12985 h 2.69273 c -0.0913,-0.63896 -0.1217,-1.24748 -0.1217,-2.14506 v -4.7161 c 0,-1.00407 0.0304,-1.56695 0.1217,-2.14506 z m 12.87036,2.6471 c -0.18256,-0.53246 -0.30426,-0.82151 -0.53246,-1.17142 -0.76066,-1.17141 -2.03857,-1.79515 -3.66638,-1.79515 -1.33876,0 -2.46454,0.42597 -3.27084,1.23227 -0.85194,0.85193 -1.33876,2.14506 -1.33876,3.59031 0,1.44525 0.47161,2.75359 1.30834,3.60553 0.77587,0.79109 1.94728,1.21705 3.30126,1.21705 1.62781,0 2.87529,-0.56288 3.65117,-1.65823 0.28905,-0.41076 0.45639,-0.77588 0.65416,-1.38441 l -2.3124,-0.41075 c -0.0913,0.36512 -0.15213,0.54767 -0.30427,0.74545 -0.33469,0.50203 -0.91279,0.77587 -1.59738,0.77587 -1.3844,0 -2.25155,-1.12578 -2.25155,-2.92094 0,-1.79515 0.82151,-2.87529 2.20591,-2.87529 0.60853,0 1.09535,0.21298 1.44525,0.65417 0.18256,0.2282 0.27384,0.42597 0.41076,0.89758 z m 1.43005,-6.00921 c 0.0913,0.5781 0.12171,1.1562 0.12171,2.11463 v 8.12385 c 0,0.928 -0.0304,1.46047 -0.12171,2.12985 h 2.61667 c -0.0913,-0.59332 -0.1217,-0.97365 -0.1217,-2.08421 v -0.79109 l 1.20184,-1.1562 1.39962,2.16027 c 0.53246,0.82152 0.8063,1.30834 1.00407,1.87123 h 3.27083 c -0.45639,-0.53246 -0.5781,-0.71502 -1.3844,-1.85601 l -2.57103,-3.62074 2.1907,-2.08421 c 0.74545,-0.73024 0.83673,-0.82152 1.55175,-1.44526 h -3.42297 c -0.25862,0.41076 -0.54768,0.74545 -1.24748,1.44526 l -1.99293,1.97771 v -4.67045 c 0,-0.928 0.0304,-1.52132 0.10649,-2.11463 z m 10.57317,0 0.30426,4.12277 h 1.50611 l 0.30426,-4.12277 z m 13.17463,10.05592 c -0.66938,0.0761 -1.1562,0.10649 -2.09942,0.10649 h -4.35098 v -3.08828 h 3.48383 c 1.00407,0 1.47568,0.0304 2.12984,0.1065 v -2.37326 c -0.71502,0.0761 -1.27791,0.10649 -2.12984,0.10649 h -3.46861 v -2.72316 h 4.1532 c 0.95843,0 1.47568,0.0304 2.11463,0.10649 v -2.40369 c -0.77587,0.0761 -1.29312,0.1065 -2.11463,0.1065 h -4.71609 c -1.04971,0 -1.44526,-0.0152 -2.069,-0.0456 0.0913,0.71502 0.12171,1.21705 0.12171,2.08421 v 8.26076 c 0,0.97365 -0.0304,1.50611 -0.12171,2.11464 0.62374,-0.0304 1.04971,-0.0456 2.08421,-0.0456 h 4.86822 c 0.98886,0 1.55175,0.0304 2.11464,0.10649 z m 4.15319,2.31241 c -0.0761,-0.71502 -0.10649,-1.24748 -0.10649,-2.12985 v -3.08828 c 0.25863,-0.62374 0.42597,-0.89758 0.71502,-1.20184 0.41076,-0.42597 0.92801,-0.66938 1.43004,-0.66938 0.38033,0 0.73024,0.15213 0.92801,0.42597 0.21298,0.27383 0.30426,0.62374 0.30426,1.24748 v 3.28605 c 0,0.928 -0.0304,1.47568 -0.1217,2.12985 h 2.64709 c -0.0761,-0.69981 -0.10649,-1.24748 -0.10649,-2.12985 v -3.08828 c 0.2282,-0.65417 0.39554,-0.928 0.71502,-1.2627 0.38033,-0.41075 0.86715,-0.62374 1.41483,-0.62374 0.44118,0 0.8063,0.16735 1.00407,0.4564 0.18256,0.27384 0.25862,0.59331 0.25862,1.23227 v 3.28605 c 0,0.95843 -0.0304,1.44525 -0.1217,2.12985 h 2.64709 c -0.0761,-0.66938 -0.10649,-1.23227 -0.10649,-2.12985 v -3.75766 c 0,-1.04971 -0.19777,-1.74952 -0.65417,-2.31241 -0.53246,-0.66938 -1.39961,-1.01928 -2.49496,-1.01928 -1.29312,0 -2.1907,0.41076 -3.04264,1.3844 -0.21299,-0.36512 -0.3499,-0.53246 -0.56289,-0.71502 -0.48682,-0.44118 -1.1562,-0.66938 -2.00814,-0.66938 -1.23227,0 -2.069,0.36512 -2.8753,1.27791 0.0152,-0.0609 0.0152,-0.0609 0.0152,-0.21299 0,-0.0152 0,-0.0152 0.0152,-0.27383 v -0.57811 h -2.51018 c 0.0913,0.56289 0.12171,1.08014 0.12171,2.12985 v 4.74652 c 0,0.88237 -0.0304,1.46047 -0.12171,2.12985 z"
       id="text2"
       aria-label="Pick'Em" />
    <path
       d="m 204.65468,355.69709 c -2.98084,-1.05713 -3.13808,-1.35735 -3.33587,-6.36907 -0.0938,-2.376 -0.2599,-6.552 -0.36919,-9.28 -0.28072,-7.00739 -1.22743,-14.31328 -2.24007,-21.42066 -0.29385,-2.06244 -0.45682,-3.01356 -1.11184,-6.1501 -0.51203,-2.52408 -1.35525,-6.19625 -1.87383,-8.16038 -5.35953,-20.29933 -15.15761,-35.95802 -26.00582,-41.5609 -5.3827,-2.78006 -6.81399,-4.79336 -6.81627,-9.58796 -8.8e-4,-1.84787 0.20078,-3.53678 0.56269,-4.71265 l 0.56405,-1.83265 1.5132,0.60623 c 0.83226,0.33343 2.4492,1.03196 3.5932,1.5523 3.06595,1.3945 11.50721,4.1592 15.36,5.03073 3.61945,0.81875 12.02736,2.22 15.28594,2.54754 2.64031,0.26539 14.1586,0.26319 17.46846,-0.003 2.99042,-0.2408 12.23701,-1.79612 16.111,-2.70994 3.28766,-0.77551 12.86813,-3.99704 14.88819,-5.0063 0.83248,-0.41592 2.23342,-1.03995 3.1132,-1.38672 l 1.59961,-0.63051 0.56405,1.83265 c 0.36191,1.17587 0.56357,2.86478 0.56269,4.71265 -0.002,4.79048 -1.43476,6.80852 -6.79995,9.57953 -4.18793,2.16298 -7.08685,4.80837 -12.58795,11.48702 -1.34289,1.63034 -4.22677,6.4835 -6.20875,10.44843 -4.9788,9.96002 -8.38965,21.67917 -10.57238,36.32502 -1.37888,9.25213 -1.81051,14.55401 -2.21437,27.2 l -0.17373,5.44 -0.94479,0.86368 c -1.98517,1.81475 -6.60254,2.36588 -9.93122,1.18539 z m -4.8,-109.31875 c -2.39458,-0.19599 -7.70079,-1.0203 -10.08,-1.5659 -4.71488,-1.08122 -9.35268,-2.33286 -11.14971,-3.00908 0,0 -1.24529,-0.47223 -1.86972,-0.70356 -0.64575,-0.23923 -1.9409,-0.70777 -1.9409,-0.70777 -2.09068,-0.72464 -10.51576,-4.8405 -13.51967,-6.60469 -5.22754,-3.07012 -9.23673,-6.05313 -14.8914,-11.07982 -13.224,-11.75542 -22.9859,-27.73409 -27.52834,-45.0595 -2.46433,-9.39926 -3.57588,-20.49911 -2.92407,-29.19965 0.50888,-9.21406 2.77426,-18.10206 5.67828,-26.80035 0.17946,-0.73813 1.46399,-3.74619 2.98515,-6.99052 8.27031,-17.638897 21.77409,-32.048035 39.24038,-41.871249 3.62479,-2.038619 9.03358,-4.381958 13.71899,-6.166375 1.94696,-0.741491 3.91787,-1.471477 5.96101,-1.878971 10.97419,-2.188751 22.26698,-3.585074 33.44,-2.96288 6.84556,0.38121 17.70896,3.229492 20.16,4.078902 l 2.72,0.942617 c 17.68976,6.130388 32.96269,20.514077 45.24271,35.136236 4.48893,5.3451 6.99781,12.11311 9.79269,18.50915 0.748,1.71179 1.37196,3.48381 1.85465,5.28845 2.00473,7.49514 3.69531,14.57686 4.29087,22.87692 0.68911,9.60385 -0.84673,21.5176 -3.60189,31.83569 -1.85236,6.93711 -8.57058,19.76203 -8.57058,19.76203 -6.51993,11.37155 -16.65673,22.40441 -27.40843,29.83125 -5.51378,3.80869 -12.02129,7.39171 -17.6,9.6905 0,0 -1.69169,0.74206 -2.56,1.05489 -0.43124,0.15536 -0.87131,0.28632 -1.31342,0.40733 -6.86239,1.87835 -14.15196,4.18627 -20.76462,4.94128 -3.80631,0.43459 -15.27326,0.57973 -19.36196,0.24507 z m 19.52,-10.21256 c 2.2,-0.2726 5.98536,-1.04086 8.94067,-1.73552 2.29151,-0.53863 4.80681,-1.1688 6.80606,-1.88361 4.79435,-1.43357 13.91449,-5.95973 19.17065,-9.51404 9.33842,-6.31481 17.8468,-14.81452 23.13918,-23.1156 0.5151,-0.80795 1.39832,-2.18899 1.9627,-3.06899 5.11012,-7.96791 9.51978,-20.24827 11.24442,-31.31433 0.70001,-4.49159 0.7835,-17.38806 0.14219,-21.96567 -0.49011,-3.4984 -2.3036,-11.66774 -3.26765,-14.72 -0.63663,-2.01563 -0.86022,-2.59986 -2.69431,-7.04 -2.80313,-6.78608 -7.6363,-14.73531 -12.65002,-20.80577 -1.79869,-2.177808 -8.22453,-8.600061 -10.69229,-10.686329 -5.45216,-4.609312 -13.76203,-9.671421 -20.8216,-12.68387 -2.06209,-0.879929 -8.23389,-3.035396 -10.0309,-3.503233 l -7.00813,-1.519653 c -9.59573,-1.887814 -19.91844,-1.914514 -29.81286,-0.07711 l -5.53516,1.027883 -1.25683,0.414244 c -3.36054,0.727253 -11.26954,3.765751 -15.71736,6.038332 -18.02034,9.207372 -31.64723,23.862126 -39.31036,42.275506 -2.09211,5.02705 -2.97012,7.80556 -4.27328,13.52304 -1.66291,7.29592 -1.93263,9.92813 -1.90972,18.63696 0.0234,8.90128 0.32845,11.42191 2.40089,19.84 5.40097,21.93831 20.39172,41.34683 40.45371,52.37542 15.40689,8.46956 32.78277,11.72491 50.72,9.50234 z m -38.26204,-22.43913 c -2.82097,-1.90361 -3.66237,-3.37589 -3.65093,-6.38835 0.0163,-4.28315 2.95247,-7.12308 7.37014,-7.1285 1.62459,-0.002 4.27004,1.15159 5.31982,2.31977 1.51065,1.68103 2.11683,5.0029 1.33407,7.3107 -0.59211,1.7457 -1.49545,2.80277 -3.26002,3.81481 -1.3634,0.78196 -2.01342,0.94722 -3.73104,0.94857 -1.74043,0.001 -2.29256,-0.14181 -3.38204,-0.877 z m -18.31276,-2.36781 c -1.00117,-0.22891 -1.83026,-0.76979 -3.05066,-1.99019 -2.58663,-2.58664 -3.10329,-5.17309 -1.62567,-8.1383 1.49899,-3.00808 4.24078,-4.50694 7.53141,-4.11721 2.61778,0.31004 4.32818,1.52169 5.42709,3.84456 1.0602,2.24105 1.15699,3.59785 0.41252,5.78276 -1.17819,3.45778 -4.96754,5.47058 -8.69469,4.61838 z m 30.12103,-14.65779 c -1.6215,-0.38622 -3.83609,-1.83928 -4.54064,-2.97926 -0.941,-1.52257 -1.45888,-3.74294 -1.19771,-5.13508 0.32058,-1.70886 0.22515,-1.84724 0.70973,-2.60602 0.88456,-1.3851 1.82475,-2.25277 3.7709,-3.17628 3.58482,-1.70111 8.53833,0.63591 9.68129,4.56754 1.07112,3.68455 -0.34654,6.68907 -3.67026,8.64625 -1.12333,0.66147 -1.81121,1.19737 -4.75331,0.68305 z m -23.14623,-3.76392 c -2.21133,-0.76838 -3.07023,-1.52937 -4.13813,-3.66644 -1.22447,-2.45037 -1.25692,-3.95669 -0.13467,-6.25049 2.22989,-4.55773 7.83267,-5.62953 11.58448,-2.21607 1.29402,1.17733 2.28864,3.52457 2.28532,5.39325 -0.002,1.28433 -0.23058,2.08744 -0.94994,3.34168 -1.03,1.79589 -1.98649,2.59405 -4.09354,3.41594 -1.65266,0.64465 -2.65819,0.64071 -4.55352,-0.0179 z m -22.31511,-1.72585 c -1.31927,-0.38111 -3.49637,-2.50538 -4.13558,-4.03521 -0.70505,-1.68743 -0.63516,-4.51221 0.14938,-6.03807 1.34976,-2.62515 3.60923,-3.96998 6.67,-3.96998 4.41016,0 7.50862,3.48555 7.04985,7.93058 -0.48593,4.70826 -4.93136,7.49996 -9.73365,6.11268 z m 34.31511,-14.72571 c -1.70617,-1.00578 -3.1819,-2.44281 -3.71587,-3.61841 -0.77963,-1.71647 -0.7789,-4.7234 0.002,-6.44178 2.36384,-5.20451 10.28666,-5.28767 12.93991,-0.1358 0.79774,1.54897 0.8886,2.0157 0.76275,3.9181 -0.16956,2.56338 -1.02157,4.07419 -3.11619,5.52577 -1.18823,0.82344 -1.71089,0.96658 -3.80481,1.04199 -1.44742,0.0521 -2.68573,-0.0649 -3.06736,-0.28987 z m -41.4924,-5.1849 c -2.91011,-1.08783 -4.7476,-3.80148 -4.7476,-7.01137 0,-2.09665 0.52476,-3.38253 2.03582,-4.98858 1.46059,-1.5524 2.51523,-1.99079 4.93206,-2.0501 2.44539,-0.06 3.35531,0.31225 5.39622,2.20768 3.1879,2.96067 2.58656,8.58293 -1.17627,10.99753 -1.86736,1.19828 -4.55243,1.55051 -6.44023,0.84484 z m 19.3547,-0.51945 c -1.52402,-0.77127 -2.16988,-1.3288 -2.81548,-2.43043 -1.7095,-2.91704 -1.35848,-6.63111 0.83392,-8.82351 1.83752,-1.83752 3.0097,-2.34272 5.39926,-2.32705 2.47815,0.0163 3.54284,0.50668 5.3454,2.46223 4.08207,4.42852 1.18321,11.44105 -4.94527,11.96292 -1.60293,0.1365 -2.09507,0.0277 -3.81783,-0.84416 z m -9.68813,-19.07796 c -1.76727,-0.76663 -3.16609,-1.98984 -3.92678,-3.43378 -0.96468,-1.83114 -0.95845,-4.96153 0.0136,-6.84292 1.13265,-2.19221 4.0021,-3.93854 6.47155,-3.93854 1.44418,0 4.08402,1.06237 4.34778,1.7497 0.1027,0.26764 0.29471,0.41989 0.42669,0.33832 0.74325,-0.45935 2.57298,3.32172 2.57298,5.31698 0,1.58512 -1.20465,4.22277 -2.34075,5.12519 -2.7322,2.17024 -5.18645,2.7169 -7.56508,1.68505 z"
       id="path1"
       sodipodi:nodetypes="cssassssscsssscssscscssssscsccsssacsssssssaaassaaasacssaassssasssssssssssccsccssssssssssssscsssssssscssasssccsssscsssssssssscscssssccsssssssssscsssssssssssss"
       style="fill:#33bbff;fill-opacity:1" />
    <path
       style="-inkscape-font-specification:'Hiragino Sans, Heavy';fill:#1aff1a;stroke-width:3.94892"
       d="m 193.92685,141.14639 c -0.23694,-2.2272 -0.3791,-4.78611 -0.3791,-7.7715 v -4.88088 h 6.49204 c 9.57222,0 15.40084,-5.44953 15.40084,-14.31094 0,-8.67185 -5.5443,-13.50535 -15.49561,-13.50535 H 189.2829 c -3.26972,0 -5.30737,-0.0474 -7.58195,-0.14216 0.28432,2.36936 0.3791,4.64395 0.3791,7.43979 v 25.58909 c 0,3.03278 -0.0948,5.35475 -0.3791,7.58195 z m -0.3791,-22.31937 v -8.48231 h 5.73385 c 2.84323,0 4.40701,1.51639 4.40701,4.17007 0,2.70107 -1.65855,4.31224 -4.40701,4.31224 z m 62.07721,5.30737 c 0,-3.31711 0.0948,-4.92827 0.33171,-6.77637 -2.17981,0.18955 -4.02791,0.28432 -6.63421,0.28432 h -4.59656 c -3.60143,0 -4.69133,-0.0474 -6.58682,-0.28432 v 9.80915 c 1.56378,-0.18955 2.08504,-0.23694 6.72898,-0.23694 v 3.93314 c -2.2272,1.04252 -3.88575,1.42161 -6.16033,1.42161 -3.12756,0 -5.25998,-0.94774 -6.72899,-3.03278 -1.18468,-1.65855 -1.89548,-4.7861 -1.89548,-8.19798 0,-7.58195 2.89062,-11.56248 8.29276,-11.56248 1.65855,0 2.98539,0.3791 3.98052,1.08991 1.08991,0.75819 1.56378,1.51639 2.08504,3.26971 l 11.65725,-2.60629 c -1.08991,-3.12756 -1.8481,-4.4544 -3.17494,-6.01818 -3.22233,-3.60142 -8.00844,-5.449525 -14.16878,-5.449525 -6.06556,0 -11.23076,1.895485 -14.83219,5.496915 -3.74359,3.74359 -5.68646,9.05096 -5.68646,15.63778 0,7.81888 2.70107,13.97922 7.67672,17.62803 3.12756,2.32198 7.96105,3.60143 13.41058,3.60143 3.26972,0 6.91853,-0.56864 9.95131,-1.469 2.46414,-0.80558 3.83837,-1.469 6.6816,-3.36449 -0.23694,-2.27459 -0.33171,-4.02791 -0.33171,-7.62934 z m 17.86495,8.4823 h 12.17851 l 0.90036,3.31711 c 0.42649,1.65855 0.80558,3.3171 1.04252,5.21259 h 13.26842 c -0.61604,-1.32684 -0.80559,-1.94287 -2.17982,-5.87601 l -10.14086,-29.2379 c -0.75819,-2.17982 -1.27945,-3.93314 -1.56377,-5.35476 H 272.0683 c -0.23694,1.32684 -0.71081,3.03278 -1.51639,5.35476 l -10.09348,29.2379 c -1.23206,3.60142 -1.56377,4.45439 -2.17981,5.87601 h 13.26842 c 0.23693,-1.75333 0.61603,-3.55404 1.04252,-5.21259 z m 9.52483,-9.47744 h -6.91853 l 3.45927,-12.60499 z"
       id="text1"
       transform="scale(0.93113902,1.0739535)"
       aria-label="PGA" />
  </g>
</svg>
